<svg width="800" height="230" xmlns="http://www.w3.org/2000/svg">
  <defs>
    <style>
      .sl { font-family:'Courier New',monospace; font-size:10px; letter-spacing:2px; font-weight:700; }
      .si { font-family:'Courier New',monospace; font-size:11px; fill:#ffffff90; }
      .sd { font-family:'Courier New',monospace; font-size:11px; fill:#ffffff30; }
    </style>
  </defs>
  <rect x="0" y="0"   width="800" height="46" fill="#0d1117"/>
  <rect x="0" y="47"  width="800" height="46" fill="#111827"/>
  <rect x="0" y="94"  width="800" height="46" fill="#0d1117"/>
  <rect x="0" y="141" width="800" height="46" fill="#111827"/>
  <rect x="0" y="188" width="800" height="46" fill="#0d1117"/>
  <rect x="0" y="0"   width="3" height="46"  fill="#00f3ff"/>
  <rect x="0" y="47"  width="3" height="46"  fill="#ff0055"/>
  <rect x="0" y="94"  width="3" height="46"  fill="#a855f7"/>
  <rect x="0" y="141" width="3" height="46"  fill="#22c55e"/>
  <rect x="0" y="188" width="3" height="46"  fill="#f59e0b"/>

  <text x="15" y="19" class="sl" fill="#00f3ff">FRONTEND</text>
  <text x="15" y="38" class="si">Next.js</text><text x="77" y="38" class="sd"> · </text>
  <text x="95" y="38" class="si">React</text><text x="142" y="38" class="sd"> · </text>
  <text x="160" y="38" class="si">TypeScript</text><text x="248" y="38" class="sd"> · </text>
  <text x="266" y="38" class="si">Tailwind</text><text x="330" y="38" class="sd"> · </text>
  <text x="348" y="38" class="si">Framer Motion</text>

  <text x="15" y="66" class="sl" fill="#ff0055">BACKEND</text>
  <text x="15" y="85" class="si">Node.js</text><text x="75" y="85" class="sd"> · </text>
  <text x="93" y="85" class="si">Express</text><text x="155" y="85" class="sd"> · </text>
  <text x="173" y="85" class="si">Python</text><text x="222" y="85" class="sd"> · </text>
  <text x="240" y="85" class="si">Socket.io</text><text x="311" y="85" class="sd"> · </text>
  <text x="329" y="85" class="si">Telethon</text>

  <text x="15" y="113" class="sl" fill="#a855f7">DATABASE</text>
  <text x="15" y="132" class="si">MongoDB</text><text x="81" y="132" class="sd"> · </text>
  <text x="99" y="132" class="si">Firebase</text><text x="162" y="132" class="sd"> · </text>
  <text x="180" y="132" class="si">PostgreSQL</text>

  <text x="15" y="160" class="sl" fill="#22c55e">OSINT &amp; INFRA</text>
  <text x="15" y="179" class="si">Python scrapers</text><text x="140" y="179" class="sd"> · </text>
  <text x="158" y="179" class="si">API architecture</text><text x="278" y="179" class="sd"> · </text>
  <text x="296" y="179" class="si">primary/fallback systems</text>

  <text x="15" y="207" class="sl" fill="#f59e0b">DEPLOY</text>
  <text x="15" y="225" class="si">Vercel</text><text x="65" y="225" class="sd"> · </text>
  <text x="83" y="225" class="si">Render</text><text x="133" y="225" class="sd"> · </text>
  <text x="151" y="225" class="si">Docker</text><text x="204" y="225" class="sd"> · </text>
  <text x="222" y="225" class="si">GitHub Actions</text>
</svg>
